<?xml version="1.0" standalone="no"?>
<!DOCTYPE svg PUBLIC "-//W3C//DTD SVG 20010904//EN"
 "http://www.w3.org/TR/2001/REC-SVG-20010904/DTD/svg10.dtd">
<svg version="1.0" xmlns="http://www.w3.org/2000/svg"
 width="1536.000000pt" height="1536.000000pt" viewBox="0 0 1536.000000 1536.000000"
 preserveAspectRatio="xMidYMid meet">

<g transform="translate(0.000000,1536.000000) scale(0.100000,-0.100000)"
fill="#000000" stroke="none">
<path d="M7240 14774 c-295 -25 -552 -55 -755 -90 -1161 -199 -2259 -686
-3184 -1412 -1034 -812 -1810 -1873 -2271 -3102 -55 -148 -118 -333 -145 -430
-7 -25 -24 -83 -38 -130 -113 -387 -198 -856 -244 -1350 -23 -259 -23 -891 0
-1150 76 -817 260 -1549 567 -2255 359 -823 855 -1551 1490 -2185 443 -444
907 -803 1440 -1114 177 -104 572 -305 735 -375 55 -23 114 -49 130 -56 17 -7
96 -38 177 -69 613 -235 1259 -382 1958 -448 183 -17 978 -17 1160 0 1100 104
2074 410 2980 937 740 430 1368 963 1926 1635 279 336 540 725 761 1135 423
783 696 1646 802 2535 37 306 46 470 46 835 0 366 -9 530 -46 835 -172 1436
-753 2743 -1713 3850 -130 150 -486 505 -651 650 -986 864 -2220 1452 -3490
1664 -437 73 -618 88 -1135 91 -250 1 -475 1 -500 -1z m855 -2679 c946 -98
1806 -508 2485 -1185 561 -559 941 -1202 1145 -1938 46 -167 97 -414 87 -424
-5 -5 -127 -7 -271 -6 l-264 3 -43 155 c-263 949 -823 1737 -1604 2257 -466
310 -949 489 -1535 569 -203 28 -636 26 -855 -4 -834 -115 -1567 -490 -2154
-1103 -281 -293 -526 -647 -700 -1011 -116 -241 -203 -477 -265 -723 l-36
-140 -264 -3 c-146 -1 -268 1 -273 6 -9 9 28 193 76 376 262 984 872 1862
1700 2443 342 240 676 408 1071 538 353 117 720 185 1130 209 107 6 426 -4
570 -19z m-1672 -3221 c133 -34 284 -158 360 -296 102 -182 141 -436 102 -658
-20 -112 -38 -167 -93 -275 -60 -117 -184 -246 -282 -293 -108 -53 -209 -64
-315 -36 -105 27 -164 63 -261 159 -77 77 -97 104 -136 185 -157 322 -130 709
67 985 138 194 353 282 558 229z m2779 -4 c136 -42 272 -162 356 -313 79 -141
119 -334 109 -517 -8 -137 -36 -242 -97 -365 -168 -342 -490 -468 -758 -298
-158 100 -263 255 -317 468 -102 402 49 836 345 990 109 57 248 70 362 35z
m-4814 -2272 l2 -1638 -252 0 c-284 0 -378 11 -536 61 -244 78 -462 232 -614
433 -78 103 -170 293 -205 422 l-27 99 -4 593 c-3 646 -1 683 54 847 34 104
99 232 162 320 135 192 376 369 597 438 176 55 268 65 585 63 l235 -1 3 -1637z
m7253 1618 c403 -74 761 -370 901 -743 64 -172 61 -142 65 -807 3 -388 0 -634
-6 -676 -39 -251 -170 -504 -353 -682 -122 -119 -308 -232 -476 -288 -146 -49
-246 -60 -544 -60 l-268 0 0 1641 0 1641 298 -5 c210 -3 322 -9 383 -21z
m-5958 -2170 c149 -281 277 -455 480 -649 335 -321 719 -518 1177 -603 136
-26 545 -26 680 -1 382 71 690 207 1005 446 247 188 509 507 670 819 26 50 54
92 61 92 7 0 81 -13 166 -29 84 -16 200 -35 258 -41 58 -6 109 -15 113 -20 11
-10 -76 -210 -149 -343 -128 -233 -264 -414 -469 -626 -235 -242 -485 -426
-777 -569 -252 -124 -481 -199 -763 -249 -147 -26 -750 -26 -910 0 -196 32
-394 86 -570 157 -89 35 -314 147 -378 187 -405 253 -719 561 -957 938 -104
166 -262 486 -247 501 4 4 89 19 189 35 101 16 215 35 253 43 116 24 107 29
168 -88z"/>
</g>
</svg>
