<svg width="1536" height="1536" xmlns="http://www.w3.org/2000/svg" preserveAspectRatio="xMidYMid meet" version="1.0">

 <g>
  <title>Layer 1</title>
  <g id="svg_1" fill="#000000" transform="translate(0 1536) scale(0.1 -0.1)">
   <path fill="#7b02fc" id="svg_2" d="m7240,14774c-295,-25 -552,-55 -755,-90c-1161,-199 -2259,-686 -3184,-1412c-1034,-812 -1810,-1873 -2271,-3102c-55,-148 -118,-333 -145,-430c-7,-25 -24,-83 -38,-130c-113,-387 -198,-856 -244,-1350c-23,-259 -23,-891 0,-1150c76,-817 260,-1549 567,-2255c359,-823 855,-1551 1490,-2185c443,-444 907,-803 1440,-1114c177,-104 572,-305 735,-375c55,-23 114,-49 130,-56c17,-7 96,-38 177,-69c613,-235 1259,-382 1958,-448c183,-17 978,-17 1160,0c1100,104 2074,410 2980,937c740,430 1368,963 1926,1635c279,336 540,725 761,1135c423,783 696,1646 802,2535c37,306 46,470 46,835c0,366 -9,530 -46,835c-172,1436 -753,2743 -1713,3850c-130,150 -486,505 -651,650c-986,864 -2220,1452 -3490,1664c-437,73 -618,88 -1135,91c-250,1 -475,1 -500,-1zm855,-2679c946,-98 1806,-508 2485,-1185c561,-559 941,-1202 1145,-1938c46,-167 97,-414 87,-424c-5,-5 -127,-7 -271,-6l-264,3l-43,155c-263,949 -823,1737 -1604,2257c-466,310 -949,489 -1535,569c-203,28 -636,26 -855,-4c-834,-115 -1567,-490 -2154,-1103c-281,-293 -526,-647 -700,-1011c-116,-241 -203,-477 -265,-723l-36,-140l-264,-3c-146,-1 -268,1 -273,6c-9,9 28,193 76,376c262,984 872,1862 1700,2443c342,240 676,408 1071,538c353,117 720,185 1130,209c107,6 426,-4 570,-19zm-1672,-3221c133,-34 284,-158 360,-296c102,-182 141,-436 102,-658c-20,-112 -38,-167 -93,-275c-60,-117 -184,-246 -282,-293c-108,-53 -209,-64 -315,-36c-105,27 -164,63 -261,159c-77,77 -97,104 -136,185c-157,322 -130,709 67,985c138,194 353,282 558,229zm2779,-4c136,-42 272,-162 356,-313c79,-141 119,-334 109,-517c-8,-137 -36,-242 -97,-365c-168,-342 -490,-468 -758,-298c-158,100 -263,255 -317,468c-102,402 49,836 345,990c109,57 248,70 362,35zm-4814,-2272l2,-1638l-252,0c-284,0 -378,11 -536,61c-244,78 -462,232 -614,433c-78,103 -170,293 -205,422l-27,99l-4,593c-3,646 -1,683 54,847c34,104 99,232 162,320c135,192 376,369 597,438c176,55 268,65 585,63l235,-1l3,-1637zm7253,1618c403,-74 761,-370 901,-743c64,-172 61,-142 65,-807c3,-388 0,-634 -6,-676c-39,-251 -170,-504 -353,-682c-122,-119 -308,-232 -476,-288c-146,-49 -246,-60 -544,-60l-268,0l0,1641l0,1641l298,-5c210,-3 322,-9 383,-21zm-5958,-2170c149,-281 277,-455 480,-649c335,-321 719,-518 1177,-603c136,-26 545,-26 680,-1c382,71 690,207 1005,446c247,188 509,507 670,819c26,50 54,92 61,92c7,0 81,-13 166,-29c84,-16 200,-35 258,-41c58,-6 109,-15 113,-20c11,-10 -76,-210 -149,-343c-128,-233 -264,-414 -469,-626c-235,-242 -485,-426 -777,-569c-252,-124 -481,-199 -763,-249c-147,-26 -750,-26 -910,0c-196,32 -394,86 -570,157c-89,35 -314,147 -378,187c-405,253 -719,561 -957,938c-104,166 -262,486 -247,501c4,4 89,19 189,35c101,16 215,35 253,43c116,24 107,29 168,-88z"/>
  </g>
 </g>
</svg>