<?xml version="1.0" encoding="UTF-8" standalone="no"?>
<svg viewBox="0 0 1000 1000" xmlns="http://www.w3.org/2000/svg">
    <circle cx="500" cy="500" r="500" fill="#4a3b74" />
    
    <path d="M500 200c-165.7 0-300 134.3-300 300 0 165.7 134.3 300 300 300 165.7 0 300-134.3 300-300 0-165.7-134.3-300-300-300zm-150 150c27.6 0 50 22.4 50 50s-22.4 50-50 50-50-22.4-50-50 22.4-50 50-50zm300 0c27.6 0 50 22.4 50 50s-22.4 50-50 50-50-22.4-50-50 22.4-50 50-50zm-150 350c-110.5 0-200-89.5-200-200h400c0 110.5-89.5 200-200 200z" fill="#ffffff" />
</svg>

