<?xml version="1.0" standalone="no"?>
<!DOCTYPE svg PUBLIC "-//W3C//DTD SVG 20010904//EN"
 "http://www.w3.org/TR/2001/REC-SVG-20010904/DTD/svg10.dtd">
<svg version="1.0" xmlns="http://www.w3.org/2000/svg"
 width="1536.000000pt" height="1536.000000pt" viewBox="0 0 1536.000000 1536.000000"
 preserveAspectRatio="xMidYMid meet">

<g transform="translate(0.000000,1536.000000) scale(0.100000,-0.100000)"
fill="#8000FF" stroke="none">
<path d="M7425 15353 c-665 -35 -1311 -156 -1935 -364 -291 -97 -724 -284
-982 -425 -222 -121 -576 -348 -778 -500 -170 -127 -299 -234 -485 -400
-907 -808 -1558 -1885 -1874 -3104 -77 -297 -129 -588 -162 -905 -17 -165
-17 -715 0 -880 81 -776 278 -1456 629 -2170 132 -269 237 -451 399 -695 532
-797 1238 -1454 2088 -1941 822 -471 1750 -747 2695 -801 179 -10 691 -10
870 0 732 42 1418 216 2075 526 1046 494 1922 1292 2518 2291 413 692 661
1459 734 2270 20 219 17 770 -5 995 -114 1161 -552 2245 -1272 3150 -151 190
-502 551 -685 705 -765 645 -1668 1062 -2640 1219 -361 58 -795 84 -1150 69z
m1040 -3228 c543 -71 1004 -297 1390 -681 375 -373 608 -826 692 -1346 25
-151 24 -510 0 -663 -84 -527 -321 -982 -706 -1357 -381 -371 -826 -604
-1351 -708 -154 -30 -501 -38 -665 -15 -665 95 -1230 443 -1615 995 -178 255
-320 612 -370 935 -27 170 -25 512 4 680 90 532 321 979 696 1348 406 399
903 628 1485 686 109 11 337 6 440 -9z"/>
</g>
</svg>
